<svg width="1200" height="630" viewBox="0 0 1200 630" fill="none" xmlns="http://www.w3.org/2000/svg">
<g clip-path="url(#clip0)">
<rect width="1200" height="630" fill="#116FFF"/>
<g clip-path="url(#clip1)">
<rect width="1024" height="1024" fill="#116FFF"/>
<path fill-rule="evenodd" clip-rule="evenodd" d="M244.859 468.197L276.778 499.387L166.855 609.958L134.937 578.768L244.859 468.197Z" fill="#0F61DE"/>
<path fill-rule="evenodd" clip-rule="evenodd" d="M385.44 474C385.164 477.718 385.023 481.475 385.023 485.265C385.023 567.455 451.094 634.097 532.581 634.097C558.638 634.097 583.084 627.224 604.323 615.27L571.205 581.853C559.271 586.74 546.249 589.489 532.581 589.489C475.513 589.489 429.249 542.618 429.249 484.807C429.249 481.158 429.434 477.553 429.793 474L385.44 474Z" fill="#0F61DE"/>
<path d="M385.211 312.235C389.137 233.577 453.621 171.008 532.579 171.008C558.636 171.008 583.082 177.88 604.321 189.834L571.203 223.252C559.269 218.365 546.248 215.616 532.579 215.616C478.189 215.616 433.614 258.191 429.55 312.235H385.211Z" fill="#0F61DE"/>
<path fill-rule="evenodd" clip-rule="evenodd" d="M243.685 374.694C222.203 374.694 204.799 357.073 204.799 335.315C204.799 313.58 222.203 295.936 243.685 295.936C265.167 295.936 282.571 313.58 282.571 335.315C282.571 357.073 265.167 374.694 243.685 374.694Z" fill="#0F61DE"/>
<path fill-rule="evenodd" clip-rule="evenodd" d="M952.2 30.8478L920.78 62.54L811.008 -48.18L842.428 -79.8721L952.2 30.8478Z" fill="#0F61DE"/>
<path fill-rule="evenodd" clip-rule="evenodd" d="M243.591 162.944L212.17 194.636L102.398 83.916L133.819 52.2239L243.591 162.944Z" fill="#0F61DE"/>
<path fill-rule="evenodd" clip-rule="evenodd" d="M717.704 445.568L686.284 477.26L576.512 366.54L607.932 334.848L717.704 445.568Z" fill="#0F61DE"/>
<path fill-rule="evenodd" clip-rule="evenodd" d="M656.507 -72.4748L688.426 -41.2846L578.504 69.2861L546.585 38.0958L656.507 -72.4748Z" fill="#9BD8F7"/>
<path fill-rule="evenodd" clip-rule="evenodd" d="M856.716 188.229L888.635 219.419L778.713 329.99L746.794 298.8L856.716 188.229Z" fill="#0F61DE"/>
<path d="M187.406 -84C188.535 -2.78975 254.166 62.7046 334.949 62.7046C361.006 62.7046 385.452 55.8322 406.691 43.8784L373.573 10.4607C361.639 15.3478 348.617 18.0967 334.949 18.0967C278.734 18.0967 233.003 -27.3832 231.648 -84L187.406 -84Z" fill="#0F61DE"/>
<path fill-rule="evenodd" clip-rule="evenodd" d="M717.796 164.774C696.314 164.774 678.91 147.152 678.91 125.395C678.91 103.66 696.314 86.0159 717.796 86.0159C739.278 86.0159 756.682 103.66 756.682 125.395C756.682 147.152 739.278 164.774 717.796 164.774Z" fill="#0F61DE"/>
<path fill-rule="evenodd" clip-rule="evenodd" d="M-1.04975 234.406C-22.5317 234.406 -39.9355 216.785 -39.9355 195.027C-39.9355 173.292 -22.5317 155.648 -1.04975 155.648C20.4322 155.648 37.8362 173.292 37.8362 195.027C37.8362 216.785 20.4322 234.406 -1.04975 234.406Z" fill="#0F61DE"/>
<path fill-rule="evenodd" clip-rule="evenodd" d="M70.5381 686.208L39.1177 717.9L-70.6543 607.18L-39.2337 575.488L70.5381 686.208Z" fill="#0F61DE"/>
<path d="M-100.173 312C-100.292 314.444 -100.352 316.903 -100.352 319.377C-100.352 401.567 -34.281 468.209 47.2061 468.209C73.2626 468.209 97.7087 461.336 118.948 449.382L85.8298 415.965C73.8958 420.852 60.8744 423.601 47.2061 423.601C-9.8624 423.601 -56.1255 376.73 -56.1255 318.919C-56.1255 316.594 -56.0507 314.287 -55.9035 312L-100.173 312Z" fill="#9BD8F7"/>
<path fill-rule="evenodd" clip-rule="evenodd" d="M1025 234.406C1003.52 234.406 986.111 216.785 986.111 195.027C986.111 173.292 1003.52 155.648 1025 155.648C1046.48 155.648 1063.88 173.292 1063.88 195.027C1063.88 216.785 1046.48 234.406 1025 234.406Z" fill="#9BD8F7"/>
<path fill-rule="evenodd" clip-rule="evenodd" d="M1096.58 686.208L1065.16 717.9L955.393 607.18L986.813 575.488L1096.58 686.208Z" fill="#9BD8F7"/>
<path d="M925.873 312C925.755 314.444 925.695 316.903 925.695 319.377C925.695 401.567 991.766 468.209 1073.25 468.209C1099.31 468.209 1123.76 461.336 1144.99 449.382L1111.88 415.965C1099.94 420.852 1086.92 423.601 1073.25 423.601C1016.18 423.601 969.921 376.73 969.921 318.919C969.921 316.594 969.996 314.287 970.143 312L925.873 312Z" fill="#0F61DE"/>
<path fill-rule="evenodd" clip-rule="evenodd" d="M887.782 538.534C866.3 538.534 848.896 520.912 848.896 499.155C848.896 477.42 866.3 459.776 887.782 459.776C909.264 459.776 926.668 477.42 926.668 499.155C926.668 520.912 909.264 538.534 887.782 538.534Z" fill="#0F61DE"/>
<path fill-rule="evenodd" clip-rule="evenodd" d="M783.486 576.742L815.404 607.932L705.482 718.502L673.564 687.312L783.486 576.742Z" fill="#0F61DE"/>
</g>
<g clip-path="url(#clip2)">
<rect x="1024" width="1024" height="1024" fill="#116FFF"/>
<path fill-rule="evenodd" clip-rule="evenodd" d="M1268.86 468.197L1300.78 499.387L1190.86 609.958L1158.94 578.768L1268.86 468.197Z" fill="#0F61DE"/>
<path fill-rule="evenodd" clip-rule="evenodd" d="M1267.59 162.944L1236.17 194.636L1126.4 83.916L1157.82 52.2239L1267.59 162.944Z" fill="#0F61DE"/>
<path fill-rule="evenodd" clip-rule="evenodd" d="M1022.95 234.406C1001.47 234.406 984.064 216.785 984.064 195.027C984.064 173.292 1001.47 155.648 1022.95 155.648C1044.43 155.648 1061.84 173.292 1061.84 195.027C1061.84 216.785 1044.43 234.406 1022.95 234.406Z" fill="#9BD8F7"/>
<path fill-rule="evenodd" clip-rule="evenodd" d="M1096.54 686.208L1065.12 717.9L955.346 607.18L986.766 575.488L1096.54 686.208Z" fill="#9BD8F7"/>
<path d="M923.827 312C923.708 314.444 923.648 316.903 923.648 319.377C923.648 401.567 989.719 468.209 1071.21 468.209C1097.26 468.209 1121.71 461.336 1142.95 449.382L1109.83 415.965C1097.9 420.852 1084.87 423.601 1071.21 423.601C1014.14 423.601 967.874 376.73 967.874 318.919C967.874 316.594 967.949 314.287 968.097 312L923.827 312Z" fill="#0F61DE"/>
</g>
</g>
<defs>
<clipPath id="clip0">
<rect width="1200" height="630" fill="white"/>
</clipPath>
<clipPath id="clip1">
<rect width="1024" height="1024" fill="white"/>
</clipPath>
<clipPath id="clip2">
<rect x="1024" width="1024" height="1024" fill="white"/>
</clipPath>
</defs>
</svg>
